<?xml version="1.0" encoding="utf-8"?>
<svg version="1.1" xmlns:xlink="http://www.w3.org/1999/xlink" width="369px" height="24px" xmlns="http://www.w3.org/2000/svg">
  <defs>
    <mask fill="white" id="clip141">
      <path d="M 0 24  L 0 0  L 251.66265060241 0  L 369 0  L 369 24  L 279.373493975904 24  L 270.939759036145 24  L 0 24  Z " fill-rule="evenodd" />
    </mask>
  </defs>
  <g transform="matrix(1 0 0 1 -751 -613 )">
    <path d="M 0 24  L 0 0  L 251.66265060241 0  L 369 0  L 369 24  L 279.373493975904 24  L 270.939759036145 24  L 0 24  Z " fill-rule="nonzero" fill="#ffffff" stroke="none" fill-opacity="0" transform="matrix(1 0 0 1 751 613 )" />
    <path d="M 0 24  L 0 0  L 251.66265060241 0  L 369 0  L 369 24  L 279.373493975904 24  L 270.939759036145 24  L 0 24  Z " stroke-width="4" stroke="#000000" fill="none" transform="matrix(1 0 0 1 751 613 )" mask="url(#clip141)" />
  </g>
</svg>