<?xml version="1.0" encoding="utf-8"?>
<svg version="1.1" xmlns:xlink="http://www.w3.org/1999/xlink" width="29px" height="24px" xmlns="http://www.w3.org/2000/svg">
  <g transform="matrix(1 0 0 1 -1194 -45 )">
    <path d="M 18.6428571428571 18.796875  C 18.7831101190476 18.796875  18.9071800595238 18.7447916666667  19.0150669642857 18.640625  L 21.3777901785714 16.359375  C 21.4856770833333 16.2552083333333  21.5396205357143 16.1354166666667  21.5396205357143 16  C 21.5396205357143 15.8645833333333  21.4856770833333 15.7447916666667  21.3777901785714 15.640625  L 17.6071428571429 12  L 21.3777901785714 8.359375  C 21.4856770833333 8.25520833333333  21.5396205357143 8.13541666666667  21.5396205357143 8  C 21.5396205357143 7.86458333333333  21.4856770833333 7.74479166666666  21.3777901785714 7.640625  L 19.0150669642857 5.359375  C 18.9071800595238 5.25520833333333  18.7831101190476 5.203125  18.6428571428571 5.203125  C 18.5026041666667 5.203125  18.3785342261905 5.25520833333333  18.2706473214286 5.359375  L 14.5 9  L 10.7293526785714 5.359375  C 10.6214657738095 5.25520833333333  10.4973958333333 5.203125  10.3571428571429 5.203125  C 10.2168898809524 5.203125  10.0928199404762 5.25520833333333  9.98493303571428 5.359375  L 7.62220982142857 7.640625  C 7.51432291666667 7.74479166666666  7.46037946428571 7.86458333333333  7.46037946428571 8  C 7.46037946428571 8.13541666666667  7.51432291666667 8.25520833333333  7.62220982142857 8.359375  L 11.3928571428571 12  L 7.62220982142857 15.640625  C 7.51432291666667 15.7447916666667  7.46037946428571 15.8645833333333  7.46037946428571 16  C 7.46037946428571 16.1354166666667  7.51432291666667 16.2552083333333  7.62220982142857 16.359375  L 9.98493303571428 18.640625  C 10.0928199404762 18.7447916666667  10.2168898809524 18.796875  10.3571428571429 18.796875  C 10.4973958333333 18.796875  10.6214657738095 18.7447916666667  10.7293526785714 18.640625  L 14.5 15  L 18.2706473214286 18.640625  C 18.3785342261905 18.7447916666667  18.5026041666667 18.796875  18.6428571428571 18.796875  Z M 28.2393973214286 0.734375000000001  C 28.7464657738095 1.22395833333333  29 1.8125  29 2.5  L 29 21.5  C 29 22.1875  28.7464657738095 22.7760416666667  28.2393973214286 23.265625  C 27.7323288690476 23.7552083333333  27.1227678571429 24  26.4107142857143 24  L 2.58928571428571 24  C 1.87723214285714 24  1.26767113095238 23.7552083333333  0.760602678571429 23.265625  C 0.253534226190476 22.7760416666667  0 22.1875  0 21.5  L 0 2.5  C 0 1.8125  0.253534226190476 1.22395833333333  0.760602678571429 0.734375000000001  C 1.26767113095238 0.244791666666664  1.87723214285714 0  2.58928571428571 0  L 26.4107142857143 0  C 27.1227678571429 0  27.7323288690476 0.244791666666664  28.2393973214286 0.734375000000001  Z " fill-rule="nonzero" fill="#ffffff" stroke="none" transform="matrix(1 0 0 1 1194 45 )" />
  </g>
</svg>