<?xml version="1.0" encoding="utf-8"?>
<svg version="1.1" xmlns:xlink="http://www.w3.org/1999/xlink" width="172px" height="31px" xmlns="http://www.w3.org/2000/svg">
  <defs>
    <mask fill="white" id="clip30">
      <path d="M 0 16  L 0 5  C 0 2.20000000000005  2.42448979591842 0  5.51020408163265 0  L 156.489795918367 0  C 159.575510204082 0  162 2.20000000000005  162 5  L 162 16  C 162 18.8  159.575510204082 21  156.489795918367 21  L 121.901181525242 21  L 5.51020408163265 21  C 2.42448979591842 21  0 18.8  0 16  Z " fill-rule="evenodd" />
    </mask>
    <filter x="1270px" y="588px" width="172px" height="31px" filterUnits="userSpaceOnUse" id="filter31">
      <feOffset dx="5" dy="5" in="SourceAlpha" result="shadowOffsetInner" />
      <feGaussianBlur stdDeviation="2.5" in="shadowOffsetInner" result="shadowGaussian" />
      <feComposite in2="shadowGaussian" operator="atop" in="SourceAlpha" result="shadowComposite" />
      <feColorMatrix type="matrix" values="0 0 0 0 0  0 0 0 0 0  0 0 0 0 0  0 0 0 0.349019607843137 0  " in="shadowComposite" />
    </filter>
    <g id="widget32">
      <path d="M 0 16  L 0 5  C 0 2.20000000000005  2.42448979591842 0  5.51020408163265 0  L 156.489795918367 0  C 159.575510204082 0  162 2.20000000000005  162 5  L 162 16  C 162 18.8  159.575510204082 21  156.489795918367 21  L 121.901181525242 21  L 5.51020408163265 21  C 2.42448979591842 21  0 18.8  0 16  Z " fill-rule="nonzero" fill="#95f204" stroke="none" transform="matrix(1 0 0 1 1270 588 )" />
      <path d="M 0 16  L 0 5  C 0 2.20000000000005  2.42448979591842 0  5.51020408163265 0  L 156.489795918367 0  C 159.575510204082 0  162 2.20000000000005  162 5  L 162 16  C 162 18.8  159.575510204082 21  156.489795918367 21  L 121.901181525242 21  L 5.51020408163265 21  C 2.42448979591842 21  0 18.8  0 16  Z " stroke-width="2" stroke="#797979" fill="none" transform="matrix(1 0 0 1 1270 588 )" mask="url(#clip30)" />
    </g>
  </defs>
  <g transform="matrix(1 0 0 1 -1270 -588 )">
    <use xlink:href="#widget32" filter="url(#filter31)" />
    <use xlink:href="#widget32" />
  </g>
</svg>