<?xml version="1.0" encoding="utf-8"?>
<svg version="1.1" xmlns:xlink="http://www.w3.org/1999/xlink" width="600px" height="247px" xmlns="http://www.w3.org/2000/svg">
  <defs>
    <linearGradient gradientUnits="userSpaceOnUse" x1="611" y1="235.29" x2="611" y2="401" id="LinearGradient142">
      <stop id="Stop143" stop-color="#d9001b" offset="0" />
      <stop id="Stop144" stop-color="#ffffff" offset="1" />
    </linearGradient>
    <linearGradient gradientUnits="userSpaceOnUse" x1="611" y1="262.53" x2="611" y2="401" id="LinearGradient145">
      <stop id="Stop146" stop-color="#d9001b" offset="0" />
      <stop id="Stop147" stop-color="#ffffff" offset="1" />
    </linearGradient>
    <filter x="321px" y="174px" width="600px" height="247px" filterUnits="userSpaceOnUse" id="filter148">
      <feOffset dx="15" dy="15" in="SourceAlpha" result="shadowOffsetInner" />
      <feGaussianBlur stdDeviation="2.5" in="shadowOffsetInner" result="shadowGaussian" />
      <feComposite in2="shadowGaussian" operator="atop" in="SourceAlpha" result="shadowComposite" />
      <feColorMatrix type="matrix" values="0 0 0 0 0  0 0 0 0 0  0 0 0 0 0  0 0 0 0.349019607843137 0  " in="shadowComposite" />
    </filter>
    <g id="widget149">
      <path d="M 323.5 194  A 17.5 17.5 0 0 1 341 176.5 L 881 176.5  A 17.5 17.5 0 0 1 898.5 194 L 898.5 381  A 17.5 17.5 0 0 1 881 398.5 L 341 398.5  A 17.5 17.5 0 0 1 323.5 381 L 323.5 194  Z " fill-rule="nonzero" fill="url(#LinearGradient142)" stroke="none" />
      <path d="M 322.5 194  A 18.5 18.5 0 0 1 341 175.5 L 881 175.5  A 18.5 18.5 0 0 1 899.5 194 L 899.5 381  A 18.5 18.5 0 0 1 881 399.5 L 341 399.5  A 18.5 18.5 0 0 1 322.5 381 L 322.5 194  Z " stroke-width="3" stroke="url(#LinearGradient145)" fill="none" />
    </g>
  </defs>
  <g transform="matrix(1 0 0 1 -321 -174 )">
    <use xlink:href="#widget149" filter="url(#filter148)" />
    <use xlink:href="#widget149" />
  </g>
</svg>